<svg width="512" height="512" viewBox="0 0 512 512" fill="none" xmlns="http://www.w3.org/2000/svg">
  <defs>
    <linearGradient id="shieldBody" x1="142" y1="82" x2="364" y2="428" gradientUnits="userSpaceOnUse">
      <stop offset="0" stop-color="#FFF2B8"/>
      <stop offset="0.16" stop-color="#F7C94B"/>
      <stop offset="0.52" stop-color="#D98A14"/>
      <stop offset="0.8" stop-color="#8E4D08"/>
      <stop offset="1" stop-color="#FFDA6B"/>
    </linearGradient>
    <linearGradient id="shieldInner" x1="183" y1="138" x2="328" y2="377" gradientUnits="userSpaceOnUse">
      <stop offset="0" stop-color="#FFF6CC"/>
      <stop offset="0.26" stop-color="#F8CE58"/>
      <stop offset="0.68" stop-color="#C87910"/>
      <stop offset="1" stop-color="#7F4607"/>
    </linearGradient>
    <linearGradient id="shieldTrim" x1="134" y1="97" x2="378" y2="411" gradientUnits="userSpaceOnUse">
      <stop offset="0" stop-color="#8B4A00"/>
      <stop offset="0.5" stop-color="#FFD45E"/>
      <stop offset="1" stop-color="#7A4000"/>
    </linearGradient>
    <linearGradient id="paperBody" x1="273" y1="168" x2="392" y2="341" gradientUnits="userSpaceOnUse">
      <stop offset="0" stop-color="#FFFFFF"/>
      <stop offset="1" stop-color="#DDE6F0"/>
    </linearGradient>
    <linearGradient id="paperFold" x1="348" y1="149" x2="390" y2="188" gradientUnits="userSpaceOnUse">
      <stop offset="0" stop-color="#F8FBFF"/>
      <stop offset="1" stop-color="#C6D4E4"/>
    </linearGradient>
    <linearGradient id="checkStroke" x1="286" y1="282" x2="366" y2="357" gradientUnits="userSpaceOnUse">
      <stop offset="0" stop-color="#8CD700"/>
      <stop offset="1" stop-color="#148E1B"/>
    </linearGradient>
    <filter id="softShadow" x="78" y="60" width="356" height="392" filterUnits="userSpaceOnUse" color-interpolation-filters="sRGB">
      <feFlood flood-opacity="0" result="BackgroundImageFix"/>
      <feColorMatrix in="SourceAlpha" type="matrix" values="0 0 0 0 0 0 0 0 0 0 0 0 0 0 0 0 0 0 127 0" result="hardAlpha"/>
      <feOffset dy="16"/>
      <feGaussianBlur stdDeviation="18"/>
      <feComposite in2="hardAlpha" operator="out"/>
      <feColorMatrix type="matrix" values="0 0 0 0 0.207843 0 0 0 0 0.12549 0 0 0 0 0 0 0 0 0.18 0"/>
      <feBlend mode="normal" in2="BackgroundImageFix" result="effect1_dropShadow_1_2"/>
      <feBlend mode="normal" in="SourceGraphic" in2="effect1_dropShadow_1_2" result="shape"/>
    </filter>
  </defs>

  <g filter="url(#softShadow)">
    <path d="M256 82L385 126V264C385 334 332 396 256 430C180 396 127 334 127 264V126L256 82Z" fill="url(#shieldBody)"/>
    <path d="M256 101L370 140V261C370 322 324 376 256 409C188 376 142 322 142 261V140L256 101Z" fill="url(#shieldTrim)" fill-opacity="0.92"/>
    <path d="M256 118L352 151V258C352 310 314 356 256 387C198 356 160 310 160 258V151L256 118Z" fill="url(#shieldInner)"/>
    <path d="M256 98L377 138V264C377 330 327 389 256 421C185 389 135 330 135 264V138L256 98Z" stroke="url(#shieldTrim)" stroke-width="10" stroke-linejoin="round"/>
    <path d="M165 192C214 176 296 172 346 196" stroke="#FFF4C6" stroke-opacity="0.45" stroke-width="10" stroke-linecap="round"/>
    <path d="M173 242C222 227 292 225 338 245" stroke="#FFF4C6" stroke-opacity="0.32" stroke-width="8" stroke-linecap="round"/>
    <path d="M182 291C224 279 282 278 323 294" stroke="#FFF4C6" stroke-opacity="0.24" stroke-width="7" stroke-linecap="round"/>

    <g transform="translate(154 146) rotate(-9 82 94)">
      <text x="82" y="135" text-anchor="middle" font-family="Arial Black, Manrope, sans-serif" font-size="132" font-weight="900" fill="#F69A12" stroke="#9B4F00" stroke-width="9" paint-order="stroke fill">
        B
      </text>
      <path d="M53 54V170" stroke="#F9C24A" stroke-width="12" stroke-linecap="round"/>
      <path d="M110 44V161" stroke="#F9C24A" stroke-width="12" stroke-linecap="round"/>
    </g>

    <g transform="translate(258 155) rotate(4 70 91)">
      <path d="M14 21C14 11.6112 21.6112 4 31 4H90L127 40V163C127 172.389 119.389 180 110 180H31C21.6112 180 14 172.389 14 163V21Z" fill="url(#paperBody)"/>
      <path d="M90 4V29C90 38.3888 97.6112 46 107 46H127" fill="url(#paperFold)"/>
      <path d="M90 4V29C90 38.3888 97.6112 46 107 46H127" stroke="#A7BACB" stroke-width="5" stroke-linejoin="round"/>
      <path d="M14 21C14 11.6112 21.6112 4 31 4H90L127 40V163C127 172.389 119.389 180 110 180H31C21.6112 180 14 172.389 14 163V21Z" stroke="#A6B6C7" stroke-width="5" stroke-linejoin="round"/>
      <path d="M46 55H84" stroke="#647A91" stroke-width="7" stroke-linecap="round"/>
      <path d="M46 81H84" stroke="#647A91" stroke-width="7" stroke-linecap="round"/>
      <path d="M33 116L58 142L107 92" stroke="url(#checkStroke)" stroke-width="19" stroke-linecap="round" stroke-linejoin="round"/>
    </g>
  </g>
</svg>
